<?xml version="1.0" standalone="no"?>
<!DOCTYPE svg PUBLIC "-//W3C//DTD SVG 20010904//EN"
 "http://www.w3.org/TR/2001/REC-SVG-20010904/DTD/svg10.dtd">
<svg version="1.0" xmlns="http://www.w3.org/2000/svg"
 width="500.000000pt" height="500.000000pt" viewBox="0 0 500.000000 500.000000"
 preserveAspectRatio="xMidYMid meet">

<g transform="translate(0.000000,500.000000) scale(0.100000,-0.100000)"
fill="#000000" stroke="none">
<path d="M829 4145 c-146 -47 -259 -201 -259 -353 0 -34 242 -1021 286 -1164
5 -17 47 -18 705 -18 l701 0 28 -29 c52 -51 52 -111 0 -162 l-28 -29 -701 0
c-658 0 -700 -1 -705 -17 -44 -144 -286 -1131 -286 -1165 0 -67 34 -166 78
-223 77 -101 188 -151 321 -143 74 5 128 27 1671 667 877 364 1613 674 1635
690 89 63 155 192 155 301 0 109 -66 238 -155 301 -22 16 -758 326 -1635 690
l-1595 662 -85 3 c-56 3 -101 -1 -131 -11z"/>
</g>
</svg>
